<svg width="69" height="25" viewBox="0 0 69 25" fill="none" xmlns="http://www.w3.org/2000/svg">
<path d="M35 9C13.4 -3.4 5.33333 7.16667 4 14M4 14L1.5 7.5L6.083 8L12 11.5L4 14Z" stroke="black"/>
<path d="M41.8331 15.6583C41.6554 16.25 41.4431 16.7112 41.196 17.0419C40.9525 17.3652 40.6365 17.5923 40.2479 17.7234C39.8203 17.8676 39.42 17.8357 39.0468 17.6277C38.6792 17.4177 38.4149 17.074 38.2538 16.5966C38.0853 16.0969 38.0444 15.5449 38.1312 14.9405C38.218 14.3361 38.4069 13.7963 38.6979 13.3209C38.9946 12.8436 39.3316 12.5413 39.7092 12.414C39.9646 12.3278 40.1943 12.3307 40.3985 12.4226C40.6008 12.509 40.7422 12.6716 40.8227 12.9103C40.8957 13.1268 40.8827 13.3631 40.7835 13.6192C40.6881 13.8678 40.5459 14.024 40.3572 14.0876C40.2739 14.1157 40.1877 14.1077 40.0986 14.0635C40.4052 13.7808 40.4845 13.4201 40.3366 12.9815C40.2841 12.8261 40.2022 12.7207 40.0908 12.6656C39.9832 12.6029 39.8627 12.5941 39.7294 12.639C39.524 12.7083 39.3439 12.8618 39.1891 13.0996C39.0399 13.3354 38.9242 13.6342 38.8421 13.9958C38.7581 14.3518 38.7205 14.717 38.7293 15.0912C38.7417 15.4581 38.806 15.8136 38.9221 16.1578C39.0606 16.5687 39.2702 16.869 39.5506 17.0589C39.8311 17.2487 40.1296 17.2903 40.446 17.1835C40.7181 17.0918 40.9528 16.9168 41.1501 16.6585C41.3475 16.4002 41.525 16.0466 41.6828 15.5977L41.8331 15.6583ZM42.0024 3.9232L43.051 14.2642L43.0856 14.6143C43.1164 14.944 43.1674 15.2144 43.2386 15.4254C43.2966 15.5975 43.3749 15.7287 43.4735 15.8192C43.5757 15.9022 43.674 15.9278 43.7683 15.896C43.9405 15.8379 44.146 15.5398 44.385 15.0016L44.5575 15.0732L44.5051 15.1929C44.3142 15.6717 44.1662 16.0029 44.0612 16.1867C43.9544 16.365 43.8371 16.4757 43.7094 16.5187C43.5429 16.5749 43.3648 16.5329 43.1753 16.3928C42.9895 16.2452 42.8563 16.0521 42.7758 15.8133C42.7196 15.6468 42.6668 15.3709 42.6172 14.9856L41.2713 4.64288L42.0024 3.9232ZM44.4652 7.09956C44.6095 7.05087 44.7411 7.05596 44.8599 7.11483C44.9787 7.1737 45.0624 7.27531 45.1111 7.41967C45.1579 7.55847 45.1501 7.69098 45.0875 7.8172C45.025 7.94342 44.9271 8.029 44.7938 8.07395C44.6661 8.11702 44.5355 8.10544 44.4018 8.03921C44.2682 7.97299 44.1798 7.87602 44.1367 7.74833C44.0918 7.61508 44.1006 7.48534 44.1631 7.35912C44.2257 7.2329 44.3264 7.14638 44.4652 7.09956ZM45.3248 10.4456L45.5161 13.4328C45.5457 13.9237 45.6063 14.3052 45.6981 14.5772C45.758 14.7549 45.8372 14.8889 45.9358 14.9794C46.0343 15.0698 46.1335 15.0982 46.2335 15.0645C46.4056 15.0064 46.6111 14.7083 46.8501 14.1701L47.0226 14.2417L46.9703 14.3614C46.7793 14.8402 46.6313 15.1714 46.5263 15.3553C46.4195 15.5335 46.3022 15.6442 46.1745 15.6873C46.0024 15.7453 45.8263 15.7089 45.6461 15.578C45.4695 15.4396 45.3373 15.24 45.2493 14.979C45.1931 14.8125 45.1374 14.5375 45.0823 14.1542L44.6238 11.0624L45.3248 10.4456ZM50.844 12.6189C50.6664 13.2106 50.454 13.6718 50.2069 14.0025C49.9635 14.3258 49.6475 14.5529 49.2588 14.684C48.8313 14.8282 48.431 14.7963 48.0578 14.5883C47.6902 14.3783 47.4258 14.0346 47.2648 13.5572C47.0962 13.0575 47.0554 12.5055 47.1421 11.9011C47.2289 11.2967 47.4179 10.7569 47.7089 10.2815C48.0055 9.80423 48.3426 9.50193 48.7201 9.37458C48.9755 9.28844 49.2053 9.29133 49.4095 9.38324C49.6117 9.46961 49.7531 9.63216 49.8337 9.8709C49.9067 10.0874 49.8936 10.3237 49.7945 10.5798C49.699 10.8284 49.5569 10.9846 49.3682 11.0482C49.2849 11.0763 49.1987 11.0683 49.1096 11.0241C49.4162 10.7414 49.4955 10.3807 49.3475 9.94212C49.2951 9.78666 49.2132 9.68134 49.1018 9.62615C48.9941 9.56353 48.8737 9.5547 48.7404 9.59964C48.535 9.66893 48.3549 9.82244 48.2001 10.0602C48.0508 10.296 47.9352 10.5947 47.8531 10.9564C47.7691 11.3124 47.7315 11.6776 47.7402 12.0518C47.7527 12.4187 47.8169 12.7742 47.933 13.1184C48.0716 13.5293 48.2811 13.8296 48.5616 14.0195C48.8421 14.2093 49.1405 14.2509 49.457 14.1441C49.7291 14.0524 49.9638 13.8774 50.1611 13.6191C50.3584 13.3608 50.536 13.0072 50.6937 12.5583L50.844 12.6189ZM50.9884 0.892217L52.0463 11.5084C52.0729 11.1655 52.1282 10.8253 52.2122 10.4878C52.2962 10.1502 52.4081 9.81262 52.5477 9.47489C52.6854 9.13161 52.8317 8.84111 52.9865 8.60338C53.1855 8.29509 53.4033 8.04232 53.6397 7.84507C53.8817 7.64594 54.1721 7.48 54.5107 7.34723L54.5855 8.06404C54.4077 8.08691 54.2772 8.11239 54.1939 8.14048C53.5387 8.36146 53.0394 8.89781 52.696 9.74952C53.1296 10.2835 53.5565 10.7517 53.9767 11.1541C54.2166 11.3886 54.4183 11.574 54.5818 11.7106C54.749 11.8397 54.8902 11.9281 55.0052 11.9759C55.1258 12.0218 55.2305 12.0297 55.3194 11.9998C55.5304 11.9286 55.7397 11.6694 55.9475 11.2221L55.9889 11.1247L56.1393 11.2131C55.807 12.0796 55.5131 12.5559 55.2577 12.642C55.0856 12.7001 54.8993 12.6794 54.6989 12.5801C54.4984 12.4808 54.2364 12.2816 53.913 11.9826C53.3478 11.4621 52.8578 10.9533 52.4428 10.4564C52.2112 11.493 52.1711 12.4742 52.3227 13.4002L51.8403 13.7576L50.2323 1.62033L50.9884 0.892217ZM57.1032 0.156114L57.8614 9.36144L57.6648 9.54836L56.1641 1.0294L57.1032 0.156114ZM57.7868 10.2678C57.9812 10.2022 58.1637 10.2118 58.3345 10.2964C58.5052 10.381 58.6234 10.5205 58.6889 10.7148C58.7545 10.9091 58.745 11.0917 58.6603 11.2625C58.5757 11.4332 58.4362 11.5514 58.2419 11.6169C58.0531 11.6806 57.8706 11.6711 57.6943 11.5883C57.5179 11.5056 57.397 11.367 57.3315 11.1727C57.2659 10.9784 57.2782 10.7949 57.3684 10.6223C57.4586 10.4496 57.5981 10.3315 57.7868 10.2678Z" fill="black"/>
</svg>
