<svg width="102" height="94" viewBox="0 0 102 94" fill="none" xmlns="http://www.w3.org/2000/svg">
<g filter="url(#filter0_d)">
<path d="M32.9414 32.0319L50.9999 15.1511L69.0585 32.0319L84.0011 46L69.0585 59.9681L50.9999 76.8489L32.9414 59.9681L17.9988 46L32.9414 32.0319Z" fill="#7B7946" fill-opacity="0.49" stroke="url(#paint0_linear)"/>
<path d="M97.1487 46.4774L98.6807 46L97.1487 45.5226C96.0644 45.1848 94.5768 44.4083 92.7766 43.2604C90.985 42.1181 88.9137 40.6274 86.669 38.8862C82.1799 35.4041 77.0167 30.9355 72.0414 26.2847C67.0661 21.6339 62.286 16.8077 58.5614 12.6118C56.6989 10.5136 55.1048 8.5781 53.8836 6.90449C52.6553 5.22122 51.8289 3.83594 51.471 2.83206L51 1.51135L50.529 2.83206C50.1711 3.83594 49.3447 5.22122 48.1164 6.90449C46.8952 8.5781 45.3011 10.5136 43.4386 12.6118C39.714 16.8077 34.9339 21.6339 29.9586 26.2847C24.9833 30.9355 19.8201 35.4041 15.331 38.8862C13.0863 40.6274 11.015 42.1181 9.22337 43.2604C7.42322 44.4083 5.93556 45.1848 4.85126 45.5226L3.31925 46L4.85126 46.4774C7.06672 47.1677 10.6505 49.2732 14.9156 52.3194C19.1629 55.3529 24.036 59.2825 28.8161 63.5721C33.5963 67.8619 38.2765 72.5053 42.1409 76.9649C46.0121 81.4325 49.0379 85.6856 50.5403 89.1967L51 90.271L51.4597 89.1967C52.9621 85.6856 55.9879 81.4325 59.8591 76.9649C63.7235 72.5053 68.4037 67.8619 73.1839 63.5721C77.964 59.2825 82.8371 55.3529 87.0844 52.3194C91.3495 49.2732 94.9333 47.1677 97.1487 46.4774Z" fill="#7B7946" fill-opacity="0.49" stroke="url(#paint1_linear)"/>
<path d="M56.1817 45.7251L54.5118 53.5122H53.3868C52.9532 52.1294 52.256 50.7876 51.295 49.4868C50.3458 48.186 49.2677 47.1138 48.0606 46.27C47.2638 47.5122 46.3731 48.6255 45.3888 49.6099C44.4044 50.5942 43.3556 51.438 42.2423 52.1411C41.1407 52.8442 39.9923 53.3892 38.797 53.7759C37.6017 54.1626 36.4298 54.356 35.2813 54.356C34.9649 54.356 34.6251 54.3267 34.2618 54.2681L34.8243 52.9321C35.4454 53.0024 35.9142 53.0376 36.2306 53.0376C39.4415 53.0376 42.3009 51.7837 44.8087 49.2759C45.3243 48.7603 45.8458 48.1685 46.3731 47.5005C46.9122 46.8208 47.4688 46.0298 48.0431 45.1274C49.3204 43.1235 50.4103 41.2485 51.3126 39.5024L52.9649 36.3208C54.2657 33.8247 55.2677 32.1372 55.9708 31.2583C56.6739 30.3677 57.3712 29.9224 58.0626 29.9224C58.2853 29.9224 58.4786 29.9692 58.6427 30.063C58.8185 30.1567 58.9532 30.2974 59.047 30.4849C59.1407 30.6606 59.1876 30.8599 59.1876 31.0825C59.1876 31.2466 59.1583 31.4868 59.0997 31.8032C59.0411 32.2251 59.006 32.4536 58.9942 32.4888L56.3048 45.1274H57.5528L57.4298 45.7251H56.1817ZM54.5294 45.7251H48.3946L48.4649 45.7778C49.5079 46.5747 50.4044 47.395 51.1544 48.2388C51.9044 49.0825 52.6368 50.0903 53.3517 51.2622L54.5294 45.7251ZM48.8692 45.1274H54.6524L57.1485 33.1743C57.2306 32.7876 57.2716 32.5884 57.2716 32.5767C57.3419 32.3423 57.3771 32.1313 57.3771 31.9438C57.3771 31.6509 57.2481 31.5044 56.9903 31.5044C56.6739 31.5044 56.2931 31.8384 55.8478 32.5063C55.4024 33.1743 54.629 34.5454 53.5274 36.6196C53.3634 36.936 53.0294 37.5747 52.5255 38.5356C52.1036 39.2974 51.8751 39.7192 51.8399 39.8013L50.1524 42.8774C49.4493 44.1548 49.0216 44.9048 48.8692 45.1274Z" fill="#7B7946" fill-opacity="0.49"/>
<path d="M56.1817 45.7251V44.7251H55.3734L55.204 45.5154L56.1817 45.7251ZM54.5118 53.5122V54.5122H55.3201L55.4896 53.7219L54.5118 53.5122ZM53.3868 53.5122L52.4326 53.8114L52.6524 54.5122H53.3868V53.5122ZM51.295 49.4868L50.4872 50.0763L50.4907 50.081L51.295 49.4868ZM48.0606 46.27L48.6336 45.4504L47.7808 44.8543L47.219 45.7301L48.0606 46.27ZM42.2423 52.1411L41.7083 51.2956L41.7042 51.2982L42.2423 52.1411ZM34.2618 54.2681L33.3402 53.88L32.8464 55.0527L34.1026 55.2553L34.2618 54.2681ZM34.8243 52.9321L34.9368 51.9385L34.1931 51.8543L33.9027 52.5441L34.8243 52.9321ZM46.3731 47.5005L45.5896 46.8791L45.5883 46.8808L46.3731 47.5005ZM48.0431 45.1274L47.1998 44.5899L47.1994 44.5906L48.0431 45.1274ZM51.3126 39.5024L50.4251 39.0416L50.4242 39.0433L51.3126 39.5024ZM52.9649 36.3208L52.0781 35.8587L52.0775 35.8599L52.9649 36.3208ZM55.9708 31.2583L56.7517 31.883L56.7557 31.8779L55.9708 31.2583ZM58.6427 30.063L58.1465 30.9312L58.1592 30.9385L58.1721 30.9453L58.6427 30.063ZM59.047 30.4849L58.1525 30.9321L58.1584 30.9438L58.1646 30.9555L59.047 30.4849ZM59.0997 31.8032L58.1164 31.6211L58.1123 31.6433L58.1092 31.6657L59.0997 31.8032ZM58.9942 32.4888L58.0456 32.1725L58.0278 32.2258L58.0161 32.2806L58.9942 32.4888ZM56.3048 45.1274L55.3267 44.9193L55.0696 46.1274H56.3048V45.1274ZM57.5528 45.1274L58.5323 45.3291L58.7797 44.1274H57.5528V45.1274ZM57.4298 45.7251V46.7251H58.2449L58.4092 45.9268L57.4298 45.7251ZM54.5294 45.7251L55.5075 45.9331L55.7645 44.7251H54.5294V45.7251ZM48.3946 45.7251V44.7251H45.3946L47.7946 46.5251L48.3946 45.7251ZM48.4649 45.7778L49.0721 44.9832L49.0649 44.9778L48.4649 45.7778ZM53.3517 51.2622L52.498 51.783L53.8069 53.9287L54.3298 51.4703L53.3517 51.2622ZM48.8692 45.1274L48.0439 44.5628L46.9734 46.1274H48.8692V45.1274ZM54.6524 45.1274V46.1274H55.4652L55.6313 45.3319L54.6524 45.1274ZM57.1485 33.1743L56.1703 32.9668L56.1697 32.9699L57.1485 33.1743ZM57.2716 32.5767L56.3138 32.2893L56.2716 32.4299V32.5767H57.2716ZM53.5274 36.6196L52.6442 36.1506L52.6397 36.1593L53.5274 36.6196ZM52.5255 38.5356L53.4003 39.0201L53.4058 39.0102L53.4111 39.0001L52.5255 38.5356ZM51.8399 39.8013L52.7167 40.2822L52.74 40.2397L52.7591 40.1952L51.8399 39.8013ZM50.1524 42.8774L51.0285 43.3597L51.0292 43.3584L50.1524 42.8774ZM55.204 45.5154L53.534 53.3025L55.4896 53.7219L57.1595 45.9348L55.204 45.5154ZM54.5118 52.5122H53.3868V54.5122H54.5118V52.5122ZM54.341 53.213C53.8706 51.7127 53.1187 50.2725 52.0993 48.8926L50.4907 50.081C51.3932 51.3027 52.0359 52.5461 52.4326 53.8114L54.341 53.213ZM52.1028 48.8973C51.0946 47.5157 49.9391 46.363 48.6336 45.4504L47.4877 47.0896C48.5962 47.8645 49.597 48.8563 50.4872 50.0763L52.1028 48.8973ZM47.219 45.7301C46.4585 46.9155 45.6124 47.9721 44.6817 48.9028L46.0959 50.317C47.1339 49.2789 48.069 48.1089 48.9023 46.81L47.219 45.7301ZM44.6817 48.9028C43.7467 49.8377 42.7554 50.6343 41.7083 51.2956L42.7763 52.9866C43.9557 52.2417 45.0621 51.3508 46.0959 50.317L44.6817 48.9028ZM41.7042 51.2982C40.6716 51.9573 39.6002 52.465 38.4892 52.8244L39.1048 54.7273C40.3844 54.3133 41.6098 53.7311 42.7803 52.984L41.7042 51.2982ZM38.4892 52.8244C37.384 53.182 36.3159 53.356 35.2813 53.356V55.356C36.5436 55.356 37.8193 55.1432 39.1048 54.7273L38.4892 52.8244ZM35.2813 53.356C35.026 53.356 34.74 53.3323 34.421 53.2808L34.1026 55.2553C34.5102 55.3211 34.9038 55.356 35.2813 55.356V53.356ZM35.1835 54.6561L35.746 53.3202L33.9027 52.5441L33.3402 53.88L35.1835 54.6561ZM34.7118 53.9258C35.3417 53.9971 35.8559 54.0376 36.2306 54.0376V52.0376C35.9724 52.0376 35.5491 52.0078 34.9368 51.9385L34.7118 53.9258ZM36.2306 54.0376C39.7357 54.0376 42.842 52.6568 45.5158 49.983L44.1016 48.5688C41.7598 50.9106 39.1473 52.0376 36.2306 52.0376V54.0376ZM45.5158 49.983C46.0631 49.4356 46.6104 48.8138 47.158 48.1201L45.5883 46.8808C45.0812 47.5231 44.5855 48.0849 44.1016 48.5688L45.5158 49.983ZM47.1566 48.1219C47.7215 47.4097 48.298 46.5894 48.8867 45.6643L47.1994 44.5906C46.6397 45.4701 46.1029 46.2319 45.5896 46.8791L47.1566 48.1219ZM48.8863 45.665C50.1767 43.6407 51.2823 41.7393 52.201 39.9615L50.4242 39.0433C49.5382 40.7578 48.4642 42.6064 47.1998 44.5899L48.8863 45.665ZM52.2001 39.9633L53.8524 36.7817L52.0775 35.8599L50.4251 39.0416L52.2001 39.9633ZM53.8517 36.7829C55.154 34.2841 56.1165 32.677 56.7517 31.883L55.1899 30.6336C54.4189 31.5975 53.3775 33.3653 52.0781 35.8587L53.8517 36.7829ZM56.7557 31.8779C57.3894 31.0752 57.8294 30.9224 58.0626 30.9224V28.9224C56.913 28.9224 55.9584 29.6601 55.1859 30.6387L56.7557 31.8779ZM58.0626 30.9224C58.1038 30.9224 58.128 30.9267 58.139 30.9294C58.1492 30.9319 58.1503 30.9334 58.1465 30.9312L59.1388 29.1947C58.7987 29.0004 58.4281 28.9224 58.0626 28.9224V30.9224ZM58.1721 30.9453C58.1711 30.9448 58.1683 30.9432 58.1644 30.9403C58.1605 30.9374 58.1568 30.934 58.1536 30.9307C58.1504 30.9273 58.1487 30.925 58.1484 30.9245C58.1481 30.9241 58.1496 30.9263 58.1525 30.9321L59.9414 30.0376C59.7601 29.675 59.4819 29.3773 59.1133 29.1806L58.1721 30.9453ZM58.1646 30.9555C58.1724 30.97 58.1876 31.0044 58.1876 31.0825H60.1876C60.1876 30.7153 60.1091 30.3513 59.9293 30.0143L58.1646 30.9555ZM58.1876 31.0825C58.1876 31.1521 58.1723 31.3192 58.1164 31.6211L60.083 31.9853C60.1443 31.6544 60.1876 31.3411 60.1876 31.0825H58.1876ZM58.1092 31.6657C58.0801 31.875 58.0575 32.032 58.041 32.139C58.0327 32.193 58.0267 32.2293 58.0229 32.2511C58.0209 32.2623 58.0204 32.2644 58.0212 32.2605C58.0216 32.2585 58.0232 32.2511 58.0259 32.2402C58.0278 32.2323 58.0343 32.2064 58.0456 32.1725L59.9429 32.805C59.9738 32.7125 59.99 32.6122 59.992 32.6012C59.9998 32.557 60.0085 32.5032 60.0178 32.4431C60.0365 32.3216 60.0607 32.1533 60.0902 31.9408L58.1092 31.6657ZM58.0161 32.2806L55.3267 44.9193L57.2829 45.3356L59.9723 32.6969L58.0161 32.2806ZM56.3048 46.1274H57.5528V44.1274H56.3048V46.1274ZM56.5734 44.9258L56.4503 45.5234L58.4092 45.9268L58.5323 45.3291L56.5734 44.9258ZM57.4298 44.7251H56.1817V46.7251H57.4298V44.7251ZM54.5294 44.7251H48.3946V46.7251H54.5294V44.7251ZM47.7946 46.5251L47.8649 46.5778L49.0649 44.9778L48.9946 44.9251L47.7946 46.5251ZM47.8578 46.5724C48.858 47.3366 49.7057 48.1142 50.407 48.9031L51.9018 47.5744C51.1031 46.6759 50.1579 45.8128 49.0721 44.9832L47.8578 46.5724ZM50.407 48.9031C51.1099 49.694 51.8078 50.6516 52.498 51.783L54.2054 50.7414C53.4658 49.5291 52.6988 48.4711 51.9018 47.5744L50.407 48.9031ZM54.3298 51.4703L55.5075 45.9331L53.5513 45.5171L52.3735 51.0542L54.3298 51.4703ZM48.8692 46.1274H54.6524V44.1274H48.8692V46.1274ZM55.6313 45.3319L58.1274 33.3787L56.1697 32.9699L53.6736 44.923L55.6313 45.3319ZM58.1268 33.3818C58.1679 33.188 58.1992 33.0391 58.2203 32.9365C58.2307 32.8857 58.2393 32.8433 58.2455 32.8115C58.2485 32.7962 58.2518 32.7788 58.2547 32.7622C58.256 32.7545 58.2583 32.7411 58.2606 32.7254C58.2618 32.7177 58.2637 32.704 58.2655 32.687C58.2665 32.6786 58.2716 32.6337 58.2716 32.5767H56.2716C56.2716 32.5204 56.2766 32.4766 56.2774 32.4696C56.2791 32.4541 56.2808 32.4422 56.2816 32.4367C56.2832 32.4254 56.2846 32.4178 56.2846 32.4175C56.285 32.4156 56.2844 32.4187 56.2823 32.4297C56.2782 32.4506 56.2714 32.4844 56.2614 32.5332C56.2415 32.6298 56.2112 32.774 56.1703 32.9668L58.1268 33.3818ZM58.2294 32.864C58.3197 32.5631 58.3771 32.2531 58.3771 31.9438H56.3771C56.3771 32.0096 56.3641 32.1214 56.3138 32.2893L58.2294 32.864ZM58.3771 31.9438C58.3771 31.6724 58.3201 31.2821 58.0311 30.9536C57.7206 30.6008 57.3089 30.5044 56.9903 30.5044V32.5044C56.9295 32.5044 56.7112 32.4812 56.5297 32.2749C56.4501 32.1845 56.4112 32.0941 56.3933 32.0331C56.3846 32.0032 56.3806 31.98 56.3788 31.9656C56.3779 31.9583 56.3775 31.9527 56.3773 31.9492C56.3772 31.9474 56.3771 31.9461 56.3771 31.9452C56.3771 31.9443 56.3771 31.9439 56.3771 31.9438H58.3771ZM56.9903 30.5044C56.4803 30.5044 56.0774 30.7668 55.8081 31.003C55.5248 31.2514 55.2622 31.5819 55.0157 31.9516L56.6798 33.061C56.8786 32.7628 57.0291 32.5924 57.1267 32.5067C57.2382 32.4089 57.1839 32.5044 56.9903 32.5044V30.5044ZM55.0157 31.9516C54.5382 32.6678 53.7423 34.0829 52.6443 36.1506L54.4106 37.0887C55.5157 35.0079 56.2666 33.6808 56.6798 33.061L55.0157 31.9516ZM52.6397 36.1593C52.4769 36.4733 52.144 37.1099 51.6399 38.0712L53.4111 39.0001C53.9148 38.0395 54.2499 37.3988 54.4152 37.0799L52.6397 36.1593ZM51.6507 38.0511C51.4392 38.4329 51.2749 38.732 51.1584 38.9471C51.0564 39.1353 50.9612 39.313 50.9208 39.4074L52.7591 40.1952C52.7538 40.2075 52.7904 40.1332 52.917 39.8996C53.029 39.6928 53.1899 39.4001 53.4003 39.0201L51.6507 38.0511ZM50.9632 39.3203L49.2757 42.3965L51.0292 43.3584L52.7167 40.2822L50.9632 39.3203ZM49.2764 42.3952C48.56 43.6966 48.1616 44.3908 48.0439 44.5628L49.6945 45.6921C49.8816 45.4187 50.3386 44.613 51.0285 43.3597L49.2764 42.3952Z" fill="url(#paint2_linear)"/>
</g>
<defs>
<filter id="filter0_d" x="0.638672" y="0.0227051" width="100.723" height="93.5192" filterUnits="userSpaceOnUse" color-interpolation-filters="sRGB">
<feFlood flood-opacity="0" result="BackgroundImageFix"/>
<feColorMatrix in="SourceAlpha" type="matrix" values="0 0 0 0 0 0 0 0 0 0 0 0 0 0 0 0 0 0 127 0" result="hardAlpha"/>
<feOffset dy="1"/>
<feGaussianBlur stdDeviation="0.5"/>
<feComposite in2="hardAlpha" operator="out"/>
<feColorMatrix type="matrix" values="0 0 0 0 0 0 0 0 0 1 0 0 0 0 0.941176 0 0 0 1 0"/>
<feBlend mode="normal" in2="BackgroundImageFix" result="effect1_dropShadow"/>
<feBlend mode="normal" in="SourceGraphic" in2="effect1_dropShadow" result="shape"/>
</filter>
<linearGradient id="paint0_linear" x1="80.2355" y1="18.6711" x2="23.6043" y2="79.2533" gradientUnits="userSpaceOnUse">
<stop stop-color="#00FFF0"/>
<stop offset="0.330626" stop-color="white"/>
<stop offset="0.473958" stop-color="#FAFF00"/>
<stop offset="0.606155" stop-color="white"/>
<stop offset="0.984375" stop-color="#00FFF0"/>
</linearGradient>
<linearGradient id="paint1_linear" x1="90.8667" y1="8.73334" x2="13.6424" y2="91.3454" gradientUnits="userSpaceOnUse">
<stop stop-color="#00FFF0"/>
<stop offset="0.330626" stop-color="white"/>
<stop offset="0.473958" stop-color="#FAFF00"/>
<stop offset="0.606155" stop-color="white"/>
<stop offset="0.984375" stop-color="#00FFF0"/>
</linearGradient>
<linearGradient id="paint2_linear" x1="63.3921" y1="37.4233" x2="38.3764" y2="69.5365" gradientUnits="userSpaceOnUse">
<stop stop-color="#00FFF0"/>
<stop offset="0.330626" stop-color="white"/>
<stop offset="0.473958" stop-color="#FAFF00"/>
<stop offset="0.606155" stop-color="white"/>
<stop offset="0.984375" stop-color="#00FFF0"/>
</linearGradient>
</defs>
</svg>
