<svg width="284" height="81" viewBox="0 0 284 81" fill="none" xmlns="http://www.w3.org/2000/svg">
<path fill-rule="evenodd" clip-rule="evenodd" d="M11.7188 27.0312L8 45.0312H10.9375L14.1562 29.7812C14.8646 26.4688 15.6458 23.6354 16.5 21.2812C17.3542 18.9271 18.4479 16.6146 19.7812 14.3438C20.9896 12.3438 22.1875 10.6771 23.375 9.34375C24.5833 7.98958 25.7917 6.9375 27 6.1875C28.2292 5.41667 29.3854 5.03125 30.4688 5.03125C31.5938 5.03125 32.4792 5.46875 33.125 6.34375C33.7708 7.21875 34.0938 8.42708 34.0938 9.96875C34.0938 12.1979 33.5729 14.6042 32.5312 17.1875C31.5104 19.7708 30.1667 22.0104 28.5 23.9062C26.7917 25.8438 24.8333 27.3854 22.625 28.5312C20.4375 29.6771 18.3646 30.25 16.4062 30.25C16.1979 30.25 16.0104 30.2396 15.8438 30.2188C16.3854 31.7812 17.2917 33.5312 18.5625 35.4688C19.8542 37.3854 21.3542 39.2917 23.0625 41.1875C24.7917 43.0625 26.4896 44.6458 28.1562 45.9375L30.4375 43.7188C29.0417 42.6354 27.6875 41.4167 26.375 40.0625C25.0625 38.7083 23.8229 37.2812 22.6562 35.7812C21.5104 34.2812 20.4375 32.6667 19.4375 30.9375C22.5417 30.0417 25.4688 28.4583 28.2188 26.1875C30.9896 23.9167 33.1979 21.2812 34.8438 18.2812C36.5104 15.2812 37.3438 12.3854 37.3438 9.59375C37.3438 7.57292 36.8646 5.96875 35.9062 4.78125C34.9479 3.59375 33.6458 3 32 3C30.8333 3 29.5938 3.34375 28.2812 4.03125C26.9896 4.69792 25.6562 5.71875 24.2812 7.09375C22.9062 8.44792 21.6042 10.0104 20.375 11.7812C18.4375 14.5729 17 17.2708 16.0625 19.875L16.1875 19C16.5625 15.9167 16.8438 12.9583 17.0312 10.125C17.1354 8.47917 17.1875 6.9375 17.1875 5.5V4.96875L13.75 6.53125L13.7812 7.28125V8.09375C13.8021 8.32292 13.8125 8.625 13.8125 9C13.8125 14.2292 13.1146 20.2396 11.7188 27.0312ZM48.125 40.625L47.5625 40.1562C46.5208 41.4688 45.5417 42.4375 44.625 43.0625C43.7083 43.6667 42.7604 43.9688 41.7812 43.9688C40.5312 43.9688 39.5104 43.5208 38.7188 42.625C37.9271 41.7083 37.5312 40.5312 37.5312 39.0938C37.5312 38.8854 37.5417 38.6979 37.5625 38.5312C40.5833 37.4062 42.9688 36.0417 44.7188 34.4375C46.4688 32.8333 47.3438 31.2292 47.3438 29.625C47.3438 28.8333 47.0625 28.1875 46.5 27.6875C45.9583 27.1875 45.2604 26.9375 44.4062 26.9375C42.9479 26.9375 41.4688 27.5729 39.9688 28.8438C38.4896 30.0938 37.25 31.6875 36.25 33.625C35.2708 35.5417 34.7812 37.4375 34.7812 39.3125C34.7812 41.1667 35.2917 42.6562 36.3125 43.7812C37.3333 44.9062 38.6875 45.4688 40.375 45.4688C41.7917 45.4688 43.1146 45.0938 44.3438 44.3438C45.5729 43.5729 46.8333 42.3333 48.125 40.625ZM42.75 34.4375C41.5417 35.6667 39.8125 36.7812 37.5625 37.7812C37.8125 35.3229 38.625 33.0312 40 30.9062C41.3958 28.7604 42.7708 27.6875 44.125 27.6875C45.0208 27.6875 45.4688 28.1771 45.4688 29.1562C45.4688 29.9271 45.2188 30.7917 44.7188 31.75C44.2188 32.7083 43.5625 33.6042 42.75 34.4375ZM62.9688 45.5625L67.75 26.5312L64.875 27.75L64.5938 28.8438C63.6146 27.7396 62.3854 27.1875 60.9062 27.1875C59.3229 27.1875 57.6875 27.8958 56 29.3125C54.3333 30.7083 52.9479 32.4688 51.8438 34.5938C50.7396 36.7188 50.1875 38.7604 50.1875 40.7188C50.1875 42.0938 50.5417 43.2292 51.25 44.125C51.9792 45 52.9271 45.4375 54.0938 45.4375C56.9688 45.4375 59.8021 42.8333 62.5938 37.625L60.1875 47.9375C59.6042 50.4583 59.0417 52.1979 58.5 53.1562C58.4011 53.3443 58.2892 53.5252 58.1644 53.6991L50.2149 54.2869C50.1225 54.2047 50.03 54.1195 49.9375 54.0312L49.7112 54.3242L15.5482 56.8503L0 58C5.41942 57.937 10.6135 57.8872 15.5889 57.85C120.058 57.0705 128.076 61.8896 100.173 67.7492C95.1924 68.7951 89.0677 69.8741 82.1427 70.9603L0 81C27.865 78.1919 59.3414 74.5369 82.1427 70.9603L100.336 68.7367L270 48L282.591 38.1069L284 37L282.213 37.1321L248.966 39.5905C249.078 38.8382 249.267 37.9747 249.531 37L252.281 26.7188L249.219 28L247.25 38.9375C247.199 39.2164 247.152 39.4797 247.111 39.7277L239.638 40.2803C239.698 39.6723 239.819 38.9851 240 38.2188L240.281 37L248.5 0.96875L245.219 2.5625L238 38.9375C237.889 39.4935 237.8 39.988 237.735 40.421L234.604 40.6525C234.611 40.6434 234.618 40.6342 234.625 40.625L234.062 40.1562C233.905 40.3544 233.749 40.5447 233.595 40.7271L224.46 41.4026C224.174 40.727 224.031 39.9574 224.031 39.0938C224.031 38.8854 224.042 38.6979 224.062 38.5312C227.083 37.4062 229.469 36.0417 231.219 34.4375C232.969 32.8333 233.844 31.2292 233.844 29.625C233.844 28.8333 233.562 28.1875 233 27.6875C232.458 27.1875 231.76 26.9375 230.906 26.9375C229.448 26.9375 227.969 27.5729 226.469 28.8438C224.99 30.0938 223.75 31.6875 222.75 33.625C221.771 35.5417 221.281 37.4375 221.281 39.3125C221.281 40.155 221.387 40.9223 221.597 41.6143L219.378 41.7784L219.688 41.4375L219.188 41C218.896 41.3171 218.621 41.6016 218.362 41.8535L214.952 42.1056C214.88 41.815 214.844 41.4881 214.844 41.125C214.844 40.3333 214.979 39.3646 215.25 38.2188L215.531 37L223.75 0.96875L220.469 2.5625L213.25 38.9375C212.979 40.2917 212.844 41.2812 212.844 41.9062C212.844 42.0261 212.848 42.1442 212.856 42.2606L205.026 42.8396L207.531 31.1562H209.75L209.969 30.0938H207.75L212.531 7.625C212.552 7.5625 212.615 7.15625 212.719 6.40625C212.823 5.84375 212.875 5.41667 212.875 5.125C212.875 4.72917 212.792 4.375 212.625 4.0625C212.458 3.72917 212.219 3.47917 211.906 3.3125C211.615 3.14583 211.271 3.0625 210.875 3.0625C209.646 3.0625 208.406 3.85417 207.156 5.4375C205.906 7 204.125 10 201.812 14.4375L198.875 20.0938C197.271 23.1979 195.333 26.5312 193.062 30.0938C192.042 31.6979 191.052 33.1042 190.094 34.3125C189.156 35.5 188.229 36.5521 187.312 37.4688C182.854 41.9271 177.771 44.1562 172.062 44.1562C171.5 44.1562 170.667 44.0938 169.562 43.9688L168.914 45.5099L59.7311 53.5833C59.9553 53.3002 60.1699 53.0016 60.375 52.6875C60.8958 51.8958 61.3333 51.0208 61.6875 50.0625C62.0625 49.1042 62.4896 47.6042 62.9688 45.5625ZM57.1075 54.78L51.4357 55.1994C52.2842 55.7123 53.1285 55.9688 53.9688 55.9688C54.8229 55.9688 55.6875 55.6979 56.5625 55.1562C56.7553 55.0369 56.937 54.9115 57.1075 54.78ZM48.8894 55.3877L30.1196 56.7756C37.0952 56.7575 43.5701 56.7682 49.5681 56.806C49.139 56.6179 48.7309 56.3805 48.3438 56.0938L48.8894 55.3877ZM55.2112 56.8509C55.7497 56.6628 56.2731 56.4208 56.7812 56.125C57.4953 55.726 58.1537 55.237 58.7566 54.6581L169.553 46.4654C169.836 46.4885 170.11 46.5 170.375 46.5C171.598 46.5 172.836 46.3767 174.089 46.13L202.239 44.0484C202.355 44.3644 202.463 44.6816 202.562 45H204.562L204.807 43.8585L213.036 43.25C213.151 43.625 213.316 43.9791 213.531 44.3125C214.01 45 214.562 45.3438 215.188 45.3438C215.667 45.3438 216.188 45.1042 216.75 44.625C217.155 44.2652 217.721 43.6734 218.45 42.8498L221.989 42.5881C222.211 43.0232 222.486 43.4209 222.812 43.7812C223.833 44.9062 225.188 45.4688 226.875 45.4688C228.292 45.4688 229.615 45.0938 230.844 44.3438C231.793 43.7483 232.761 42.8733 233.748 41.7185L237.614 41.4327C237.601 41.6087 237.594 41.7666 237.594 41.9062C237.594 42.8021 237.823 43.6042 238.281 44.3125C238.76 45 239.312 45.3438 239.938 45.3438C240.417 45.3438 240.938 45.1042 241.5 44.625C242.062 44.125 242.938 43.1771 244.125 41.7812L244.438 41.4375L243.938 41C242.521 42.5417 241.49 43.3125 240.844 43.3125C240.49 43.3125 240.188 43.1146 239.938 42.7188C239.728 42.3373 239.614 41.8597 239.596 41.2861L246.963 40.7414C246.904 41.2152 246.875 41.6035 246.875 41.9062C246.875 42.8854 247.094 43.7083 247.531 44.375C247.99 45.0208 248.542 45.3438 249.188 45.3438C249.667 45.3438 250.188 45.1042 250.75 44.625C251.312 44.125 252.188 43.1771 253.375 41.7812L253.688 41.4375L253.188 41C251.771 42.5417 250.74 43.3125 250.094 43.3125C249.719 43.3125 249.417 43.1042 249.188 42.6875C248.958 42.2708 248.844 41.7292 248.844 41.0625C248.844 40.9156 248.848 40.7619 248.858 40.6013L280.804 38.239L269.602 47.0412L108.632 66.7154C108.859 66.648 109.08 66.5808 109.295 66.5139C110.675 66.0839 111.831 65.6528 112.714 65.2185C113.543 64.8107 114.322 64.3129 114.707 63.6615C114.926 63.2908 115.039 62.8326 114.91 62.3442C114.79 61.8858 114.493 61.5415 114.185 61.2905C113.588 60.8051 112.652 60.4301 111.499 60.11C106.841 58.8166 96.3455 57.8469 78.4171 57.2918C71.7534 57.0854 64.0476 56.9363 55.2112 56.8509ZM232.612 41.8026L225.01 42.3647C225.076 42.4537 225.146 42.5404 225.219 42.625C226.01 43.5208 227.031 43.9688 228.281 43.9688C229.26 43.9688 230.208 43.6667 231.125 43.0625C231.604 42.7362 232.099 42.3162 232.612 41.8026ZM217.035 42.9543L215.478 43.0695C215.662 43.2315 215.867 43.3125 216.094 43.3125C216.348 43.3125 216.662 43.1931 217.035 42.9543ZM201.856 43.074C201.107 41.291 200.102 39.5476 198.844 37.8438C197.156 35.5312 195.24 33.625 193.094 32.125C191.677 34.3333 190.094 36.3125 188.344 38.0625C186.594 39.8125 184.729 41.3125 182.75 42.5625C181.355 43.4529 179.918 44.2006 178.438 44.8056L201.856 43.074ZM61.0312 28.0625C62.3646 28.0625 63.4375 28.8438 64.25 30.4062L63.9062 31.8125C63.2812 34.4167 62.3958 36.6667 61.25 38.5625C60.25 40.2292 59.2396 41.5208 58.2188 42.4375C57.2188 43.3542 56.3021 43.8125 55.4688 43.8125C54.6562 43.8125 54.0208 43.5208 53.5625 42.9375C53.125 42.3333 52.9062 41.5104 52.9062 40.4688C52.9062 38.9271 53.2917 37.1875 54.0625 35.25C54.8542 33.2917 55.8021 31.6667 56.9062 30.375C58.2604 28.8333 59.6354 28.0625 61.0312 28.0625ZM84.3438 37.9688L87.2812 26.5312L84.3438 27.75L84 28.9375C83.1875 27.7292 81.9583 27.125 80.3125 27.125C78.75 27.125 77.1354 27.8229 75.4688 29.2188C73.8229 30.5938 72.4375 32.3542 71.3125 34.5C70.2083 36.6458 69.6562 38.6979 69.6562 40.6562C69.6562 42.0938 70 43.2396 70.6875 44.0938C71.375 44.9479 72.3125 45.375 73.5 45.375C75.4792 45.375 77.5521 44 79.7188 41.25C81.0104 39.6042 82.0417 37.8854 82.8125 36.0938L82.5625 37.2812C82.0625 39.6354 81.8125 41.1458 81.8125 41.8125C81.8125 42.7292 82.0521 43.5417 82.5312 44.25C83.0312 44.9375 83.6146 45.2812 84.2812 45.2812C84.7188 45.2812 85.2292 45.0312 85.8125 44.5312C86.4167 44.0104 87.2708 43.1146 88.375 41.8438L88.7188 41.4375L88.2812 41C86.8854 42.4792 85.8854 43.2188 85.2812 43.2188C84.8854 43.2188 84.5521 42.9896 84.2812 42.5312C84.0104 42.0729 83.875 41.5312 83.875 40.9062C83.875 40.1979 84.0312 39.2188 84.3438 37.9688ZM82.4062 28.6875C83.0104 29.125 83.4375 29.7396 83.6875 30.5312L83.4062 31.625C82.9688 33.3333 82.5729 34.6667 82.2188 35.625C81.8646 36.5833 81.375 37.5417 80.75 38.5C79.7292 40.1667 78.6979 41.4479 77.6562 42.3438C76.6146 43.2396 75.6146 43.6875 74.6562 43.6875C73.9062 43.6875 73.3229 43.3854 72.9062 42.7812C72.5104 42.1771 72.3125 41.3438 72.3125 40.2812C72.3125 39.3438 72.5312 38.1562 72.9688 36.7188C73.4271 35.2812 73.9896 33.9688 74.6562 32.7812C75.5104 31.2812 76.4479 30.1146 77.4688 29.2812C78.4896 28.4271 79.4583 28 80.375 28C81.1458 28 81.8229 28.2292 82.4062 28.6875ZM93.9688 37L102.188 0.96875L98.9062 2.5625L91.6875 38.9375C91.4167 40.2917 91.2812 41.2812 91.2812 41.9062C91.2812 42.8021 91.5104 43.6042 91.9688 44.3125C92.4479 45 93 45.3438 93.625 45.3438C94.1042 45.3438 94.625 45.1042 95.1875 44.625C95.75 44.125 96.625 43.1771 97.8125 41.7812L98.125 41.4375L97.625 41C96.2083 42.5417 95.1771 43.3125 94.5312 43.3125C94.1771 43.3125 93.875 43.1146 93.625 42.7188C93.3958 42.3021 93.2812 41.7708 93.2812 41.125C93.2812 40.3333 93.4167 39.3646 93.6875 38.2188L93.9688 37ZM113.062 40.625L112.5 40.1562C111.458 41.4688 110.479 42.4375 109.562 43.0625C108.646 43.6667 107.698 43.9688 106.719 43.9688C105.469 43.9688 104.448 43.5208 103.656 42.625C102.865 41.7083 102.469 40.5312 102.469 39.0938C102.469 38.8854 102.479 38.6979 102.5 38.5312C105.521 37.4062 107.906 36.0417 109.656 34.4375C111.406 32.8333 112.281 31.2292 112.281 29.625C112.281 28.8333 112 28.1875 111.438 27.6875C110.896 27.1875 110.198 26.9375 109.344 26.9375C107.885 26.9375 106.406 27.5729 104.906 28.8438C103.427 30.0938 102.188 31.6875 101.188 33.625C100.208 35.5417 99.7188 37.4375 99.7188 39.3125C99.7188 41.1667 100.229 42.6562 101.25 43.7812C102.271 44.9062 103.625 45.4688 105.312 45.4688C106.729 45.4688 108.052 45.0938 109.281 44.3438C110.51 43.5729 111.771 42.3333 113.062 40.625ZM107.688 34.4375C106.479 35.6667 104.75 36.7812 102.5 37.7812C102.75 35.3229 103.562 33.0312 104.938 30.9062C106.333 28.7604 107.708 27.6875 109.062 27.6875C109.958 27.6875 110.406 28.1771 110.406 29.1562C110.406 29.9271 110.156 30.7917 109.656 31.75C109.156 32.7083 108.5 33.6042 107.688 34.4375ZM118.812 30.0625C118.208 31.9375 117.01 33.9583 115.219 36.125L115.781 36.625C117.615 34.4583 118.865 32.3542 119.531 30.3125C119.948 30.4167 120.344 30.4688 120.719 30.4688C121.531 30.4688 122.25 30.3438 122.875 30.0938C123.521 29.8229 124.188 29.375 124.875 28.75L124.562 29.1875C123.521 30.7708 122.656 32.1354 121.969 33.2812C121.281 34.4271 120.719 35.4479 120.281 36.3438C119.073 38.7396 118.469 40.7188 118.469 42.2812C118.469 43.2188 118.698 43.9583 119.156 44.5C119.635 45.0417 120.281 45.3125 121.094 45.3125C122.052 45.3125 123.083 44.875 124.188 44C125.417 43.0417 126.323 42.2396 126.906 41.5938L126.406 41.0312C124.51 42.8438 123.135 43.75 122.281 43.75C121.927 43.75 121.625 43.5938 121.375 43.2812C121.125 42.9479 121 42.5417 121 42.0625C121 40.75 121.479 38.7708 122.438 36.125C123.417 33.4583 124.656 30.75 126.156 28L126.375 27.5625H124.875C124.042 28.3125 122.979 28.6875 121.688 28.6875C121.229 28.6875 120.719 28.6146 120.156 28.4688C120.385 27.6771 120.5 26.9583 120.5 26.3125C120.5 25.3958 120.302 24.6562 119.906 24.0938C119.51 23.5104 119 23.2188 118.375 23.2188C117.771 23.2188 117.271 23.4792 116.875 24C116.479 24.5208 116.281 25.1979 116.281 26.0312C116.281 27.7812 117.125 29.125 118.812 30.0625ZM119.625 26.875C119.625 27.2292 119.583 27.6667 119.5 28.1875C118.208 27.4167 117.562 26.5417 117.562 25.5625C117.562 25.2708 117.635 25.0312 117.781 24.8438C117.948 24.6354 118.135 24.5312 118.344 24.5312C118.719 24.5312 119.021 24.7396 119.25 25.1562C119.5 25.5729 119.625 26.1458 119.625 26.875ZM137.562 14.9688C137.229 14.6354 136.792 14.4688 136.25 14.4688C135.729 14.4688 135.292 14.6458 134.938 15C134.583 15.3542 134.406 15.7812 134.406 16.2812C134.406 16.7604 134.594 17.1875 134.969 17.5625C135.344 17.9375 135.771 18.125 136.25 18.125C136.75 18.125 137.177 17.9479 137.531 17.5938C137.885 17.2396 138.062 16.8021 138.062 16.2812C138.062 15.7396 137.896 15.3021 137.562 14.9688ZM132.594 37L135.344 26.7188L132.281 28L130.312 38.9375C130.062 40.2917 129.938 41.2812 129.938 41.9062C129.938 42.8854 130.156 43.7083 130.594 44.375C131.052 45.0208 131.604 45.3438 132.25 45.3438C132.729 45.3438 133.25 45.1042 133.812 44.625C134.375 44.125 135.25 43.1771 136.438 41.7812L136.75 41.4375L136.25 41C134.833 42.5417 133.802 43.3125 133.156 43.3125C132.781 43.3125 132.479 43.1042 132.25 42.6875C132.021 42.2708 131.906 41.7292 131.906 41.0625C131.906 40.0417 132.135 38.6875 132.594 37ZM153.031 37.9688L155.969 26.5312L153.031 27.75L152.688 28.9375C151.875 27.7292 150.646 27.125 149 27.125C147.438 27.125 145.823 27.8229 144.156 29.2188C142.51 30.5938 141.125 32.3542 140 34.5C138.896 36.6458 138.344 38.6979 138.344 40.6562C138.344 42.0938 138.688 43.2396 139.375 44.0938C140.062 44.9479 141 45.375 142.188 45.375C144.167 45.375 146.24 44 148.406 41.25C149.698 39.6042 150.729 37.8854 151.5 36.0938L151.25 37.2812C150.75 39.6354 150.5 41.1458 150.5 41.8125C150.5 42.7292 150.74 43.5417 151.219 44.25C151.719 44.9375 152.302 45.2812 152.969 45.2812C153.406 45.2812 153.917 45.0312 154.5 44.5312C155.104 44.0104 155.958 43.1146 157.062 41.8438L157.406 41.4375L156.969 41C155.573 42.4792 154.573 43.2188 153.969 43.2188C153.573 43.2188 153.24 42.9896 152.969 42.5312C152.698 42.0729 152.562 41.5312 152.562 40.9062C152.562 40.1979 152.719 39.2188 153.031 37.9688ZM151.094 28.6875C151.698 29.125 152.125 29.7396 152.375 30.5312L152.094 31.625C151.656 33.3333 151.26 34.6667 150.906 35.625C150.552 36.5833 150.062 37.5417 149.438 38.5C148.417 40.1667 147.385 41.4479 146.344 42.3438C145.302 43.2396 144.302 43.6875 143.344 43.6875C142.594 43.6875 142.01 43.3854 141.594 42.7812C141.198 42.1771 141 41.3438 141 40.2812C141 39.3438 141.219 38.1562 141.656 36.7188C142.115 35.2812 142.677 33.9688 143.344 32.7812C144.198 31.2812 145.135 30.1146 146.156 29.2812C147.177 28.4271 148.146 28 149.062 28C149.833 28 150.51 28.2292 151.094 28.6875ZM193.688 31.1562H204.594L202.5 41C201.229 38.9167 199.927 37.125 198.594 35.625C197.26 34.125 195.667 32.6667 193.812 31.25L193.688 31.1562ZM204.812 30.0938H194.531C194.802 29.6979 195.562 28.3646 196.812 26.0938L199.812 20.625C199.875 20.4792 200.281 19.7292 201.031 18.375C201.927 16.6667 202.521 15.5312 202.812 14.9688C204.771 11.2812 206.146 8.84375 206.938 7.65625C207.729 6.46875 208.406 5.875 208.969 5.875C209.427 5.875 209.656 6.13542 209.656 6.65625C209.656 6.98958 209.594 7.36458 209.469 7.78125C209.469 7.80208 209.396 8.15625 209.25 8.84375L204.812 30.0938ZM229.25 34.4375C228.042 35.6667 226.312 36.7812 224.062 37.7812C224.312 35.3229 225.125 33.0312 226.5 30.9062C227.896 28.7604 229.271 27.6875 230.625 27.6875C231.521 27.6875 231.969 28.1771 231.969 29.1562C231.969 29.9271 231.719 30.7917 231.219 31.75C230.719 32.7083 230.062 33.6042 229.25 34.4375ZM254.5 14.9688C254.167 14.6354 253.729 14.4688 253.188 14.4688C252.667 14.4688 252.229 14.6458 251.875 15C251.521 15.3542 251.344 15.7812 251.344 16.2812C251.344 16.7604 251.531 17.1875 251.906 17.5625C252.281 17.9375 252.708 18.125 253.188 18.125C253.688 18.125 254.115 17.9479 254.469 17.5938C254.823 17.2396 255 16.8021 255 16.2812C255 15.7396 254.833 15.3021 254.5 14.9688Z" fill="black"/>
</svg>
