<svg width="188" height="53" viewBox="0 0 188 53" fill="none" xmlns="http://www.w3.org/2000/svg">
<path d="M185 53C185 53 144.816 53 94 53C43.1837 53 3 53 3 53C3 53 43.1837 1 94 1C144.816 1 185 53 185 53Z" fill="white" stroke="url(#paint0_linear)" stroke-width="2"/>
<path d="M94.106 7.76124C89.7362 -5.73876 92.6355 34.0345 95.106 45.7612M95.106 45.7612C92.7362 27.4656 114.736 15.4041 114.736 21.3327C114.736 27.2612 77.7908 31.5608 75.2362 21.3327C72.6816 11.1046 91.6114 41.2475 95.106 45.7612Z" stroke="#4E5A5A" stroke-miterlimit="1.30541" stroke-linejoin="round"/>
<defs>
<linearGradient id="paint0_linear" x1="94" y1="1" x2="94" y2="53" gradientUnits="userSpaceOnUse">
<stop stop-color="#FFF500"/>
<stop offset="1" stop-color="#00FFE0" stop-opacity="0"/>
</linearGradient>
</defs>
</svg>
